<?xml version="1.0" encoding="UTF-8" standalone="no"?>
<svg
   xmlns:dc="http://purl.org/dc/elements/1.1/"
   xmlns:cc="http://creativecommons.org/ns#"
   xmlns:rdf="http://www.w3.org/1999/02/22-rdf-syntax-ns#"
   xmlns:svg="http://www.w3.org/2000/svg"
   xmlns="http://www.w3.org/2000/svg"
   xmlns:sodipodi="http://sodipodi.sourceforge.net/DTD/sodipodi-0.dtd"
   xmlns:inkscape="http://www.inkscape.org/namespaces/inkscape"
   version="1.1"
   id="Layer_1"
   x="0px"
   y="0px"
   width="661px"
   height="661px"
   viewBox="0 0 511.883 511.883"
   style="enable-background:new 0 0 511.883 511.883;"
   xml:space="preserve"
   sodipodi:docname="design-implementazione.svg"
   inkscape:version="1.0.2-2 (e86c870879, 2021-01-15)"><metadata
   id="metadata77"><rdf:RDF><cc:Work
       rdf:about=""><dc:format>image/svg+xml</dc:format><dc:type
         rdf:resource="http://purl.org/dc/dcmitype/StillImage" /></cc:Work></rdf:RDF></metadata><defs
   id="defs75" /><sodipodi:namedview
   pagecolor="#ffffff"
   bordercolor="#666666"
   borderopacity="1"
   objecttolerance="10"
   gridtolerance="10"
   guidetolerance="10"
   inkscape:pageopacity="0"
   inkscape:pageshadow="2"
   inkscape:window-width="1920"
   inkscape:window-height="1017"
   id="namedview73"
   showgrid="false"
   inkscape:zoom="1.6605357"
   inkscape:cx="255.9415"
   inkscape:cy="233.43818"
   inkscape:window-x="-8"
   inkscape:window-y="-8"
   inkscape:window-maximized="1"
   inkscape:current-layer="Layer_1" />
<polygon
   style="fill:#ccd1d9"
   points="170.626,479.889 191.894,373.336 319.942,373.305 341.251,479.889 "
   id="polygon2"
   transform="matrix(0.71176471,0,0,0.69075449,73.470266,83.966482)" />
<g
   id="g8"
   transform="matrix(0.71176471,0,0,0.69075449,73.470266,83.966482)">
	<path
   style="fill:#e6e9ed"
   d="m 511.883,383.913 c 0,5.905 -4.781,10.669 -10.67,10.669 H 10.662 C 4.773,394.582 0,389.818 0,383.913 V 42.663 C 0,36.774 4.772,31.994 10.662,31.994 h 490.551 c 5.889,0 10.67,4.78 10.67,10.669 z"
   id="path4" />
	<path
   style="fill:#e6e9ed"
   d="M 341.251,479.889 H 170.626 c -5.89,0 -10.669,-4.764 -10.669,-10.653 0,-5.889 4.78,-10.67 10.669,-10.67 h 170.625 c 5.889,0 10.669,4.78 10.669,10.67 0,5.89 -4.781,10.653 -10.669,10.653 z"
   id="path6" />
</g>
<path
   style="fill:#8c8cf9;fill-opacity:1;stroke-width:0.70118"
   d="M 430.21599,106.06648 H 81.059101 c -4.191582,0 -7.588835,3.30181 -7.588835,7.36966 V 312.32785 H 437.81053 V 113.43614 c 0,-4.06785 -3.40295,-7.36966 -7.59454,-7.36966 z"
   id="path10" />
<g
   id="g16"
   transform="matrix(0.71176471,0,0,0.69075449,73.470266,83.966482)">
	<path
   style="fill:#434a54"
   d="M 501.213,31.994 H 405.234 V 330.597 H 511.882 V 42.663 c 10e-4,-5.889 -4.78,-10.669 -10.669,-10.669 z"
   id="path12" />
	<path
   style="fill:#434a54"
   d="m 266.603,362.589 c 0,5.89 -4.78,10.669 -10.669,10.669 -5.889,0 -10.662,-4.779 -10.662,-10.669 0,-5.89 4.772,-10.669 10.662,-10.669 5.89,0 10.669,4.779 10.669,10.669 z"
   id="path14" />
</g>
<rect
   x="361.90009"
   y="194.46095"
   style="fill:#656d78;stroke-width:0.70118"
   width="74.849182"
   height="14.739319"
   id="rect18" />
<polygon
   style="fill:#e6e9ed"
   points="127.963,245.085 176.718,163.823 225.464,245.085 "
   id="polygon20"
   transform="matrix(0.71176471,0,0,0.69075449,73.470266,83.966482)" />
<polygon
   style="fill:#f5f7fa"
   points="168.594,245.085 233.595,131.33 298.588,245.085 "
   id="polygon22"
   transform="matrix(0.71176471,0,0,0.69075449,73.470266,83.966482)" />
<g
   id="g40"
   transform="matrix(0.71176471,0,0,0.69075449,73.470266,83.966482)">
	<rect
   x="85.311996"
   y="95.982002"
   style="fill:#434a54"
   width="21.330999"
   height="21.339001"
   id="rect24" />
	<rect
   x="202.62199"
   y="95.982002"
   style="fill:#434a54"
   width="21.323"
   height="21.339001"
   id="rect26" />
	<rect
   x="319.922"
   y="95.982002"
   style="fill:#434a54"
   width="21.323999"
   height="21.339001"
   id="rect28" />
	<rect
   x="319.922"
   y="181.302"
   style="fill:#434a54"
   width="21.323999"
   height="21.323"
   id="rect30" />
	<rect
   x="319.922"
   y="266.612"
   style="fill:#434a54"
   width="21.323999"
   height="21.322001"
   id="rect32" />
	<rect
   x="85.311996"
   y="266.612"
   style="fill:#434a54"
   width="21.330999"
   height="21.322001"
   id="rect34" />
	<rect
   x="85.311996"
   y="181.302"
   style="fill:#434a54"
   width="21.330999"
   height="21.323"
   id="rect36" />
	<rect
   x="202.62199"
   y="266.612"
   style="fill:#434a54"
   width="21.323"
   height="21.322001"
   id="rect38" />
</g>
<g
   id="g42"
   transform="matrix(0.71176471,0,0,0.69075449,73.470266,83.966482)">
</g>
<g
   id="g44"
   transform="matrix(0.71176471,0,0,0.69075449,73.470266,83.966482)">
</g>
<g
   id="g46"
   transform="matrix(0.71176471,0,0,0.69075449,73.470266,83.966482)">
</g>
<g
   id="g48"
   transform="matrix(0.71176471,0,0,0.69075449,73.470266,83.966482)">
</g>
<g
   id="g50"
   transform="matrix(0.71176471,0,0,0.69075449,73.470266,83.966482)">
</g>
<g
   id="g52"
   transform="matrix(0.71176471,0,0,0.69075449,73.470266,83.966482)">
</g>
<g
   id="g54"
   transform="matrix(0.71176471,0,0,0.69075449,73.470266,83.966482)">
</g>
<g
   id="g56"
   transform="matrix(0.71176471,0,0,0.69075449,73.470266,83.966482)">
</g>
<g
   id="g58"
   transform="matrix(0.71176471,0,0,0.69075449,73.470266,83.966482)">
</g>
<g
   id="g60"
   transform="matrix(0.71176471,0,0,0.69075449,73.470266,83.966482)">
</g>
<g
   id="g62"
   transform="matrix(0.71176471,0,0,0.69075449,73.470266,83.966482)">
</g>
<g
   id="g64"
   transform="matrix(0.71176471,0,0,0.69075449,73.470266,83.966482)">
</g>
<g
   id="g66"
   transform="matrix(0.71176471,0,0,0.69075449,73.470266,83.966482)">
</g>
<g
   id="g68"
   transform="matrix(0.71176471,0,0,0.69075449,73.470266,83.966482)">
</g>
<g
   id="g70"
   transform="matrix(0.71176471,0,0,0.69075449,73.470266,83.966482)">
</g>
</svg>
