<?xml version="1.0" encoding="UTF-8" standalone="no"?>
<svg
   xmlns:dc="http://purl.org/dc/elements/1.1/"
   xmlns:cc="http://creativecommons.org/ns#"
   xmlns:rdf="http://www.w3.org/1999/02/22-rdf-syntax-ns#"
   xmlns:svg="http://www.w3.org/2000/svg"
   xmlns="http://www.w3.org/2000/svg"
   xmlns:sodipodi="http://sodipodi.sourceforge.net/DTD/sodipodi-0.dtd"
   xmlns:inkscape="http://www.inkscape.org/namespaces/inkscape"
   width="210mm"
   height="297mm"
   viewBox="0 0 210 297"
   version="1.1"
   id="svg8"
   inkscape:version="1.0.2-2 (e86c870879, 2021-01-15)"
   sodipodi:docname="drawing.svg">
  <defs
     id="defs2" />
  <sodipodi:namedview
     id="base"
     pagecolor="#ffffff"
     bordercolor="#666666"
     borderopacity="1.0"
     inkscape:pageopacity="0.0"
     inkscape:pageshadow="2"
     inkscape:zoom="0.35"
     inkscape:cx="400"
     inkscape:cy="560"
     inkscape:document-units="mm"
     inkscape:current-layer="layer1"
     inkscape:document-rotation="0"
     showgrid="false"
     inkscape:window-width="1920"
     inkscape:window-height="1017"
     inkscape:window-x="-8"
     inkscape:window-y="-8"
     inkscape:window-maximized="1" />
  <metadata
     id="metadata5">
    <rdf:RDF>
      <cc:Work
         rdf:about="">
        <dc:format>image/svg+xml</dc:format>
        <dc:type
           rdf:resource="http://purl.org/dc/dcmitype/StillImage" />
        <dc:title></dc:title>
      </cc:Work>
    </rdf:RDF>
  </metadata>
  <g
     inkscape:label="Layer 1"
     inkscape:groupmode="layer"
     id="layer1">
    <path
       style="fill:none;stroke:#000000;stroke-width:0.264583px;stroke-linecap:butt;stroke-linejoin:miter;stroke-opacity:1"
       d="m 28.72619,7.5595238 c -0.18007,4.5721632 -1.180076,9.2560132 -2.267857,13.6071422 -0.912415,3.649662 -0.28692,31.827306 0.755952,37.041667 0.617458,3.087282 -1.215493,9.66425 0,12.095239 1.869133,3.738261 0.875567,6.884908 1.511905,11.339284 0.07969,0.55779 0.619295,0.965275 0.755952,1.511904 1.461564,5.846254 -0.47226,24.09535 -2.267857,29.48214 -1.657799,4.9734 1.756304,25.96954 0,29.48215 -2.323179,4.64636 -0.755952,14.36234 -0.755952,19.65476 0,5.449 -1.543081,14.30074 0.755952,18.89881 1.713492,3.42698 -1.713492,9.4242 0,12.85119 0.440295,0.88059 1.07161,1.38727 1.511905,2.26785 0.39655,0.79311 -0.603371,3.17639 0,3.77976 0.909672,0.90968 1.691037,0.0896 3.02381,0.75596 1.532231,0.76611 1.470263,1.47026 2.267857,2.26786 0.356359,0.35636 1.155544,-0.35636 1.511903,0 0.35636,0.35636 -0.356359,1.15554 0,1.5119 0.178181,0.17818 0.577774,-0.17818 0.755955,0 0.473088,0.47309 -0.29227,9.88781 -0.755955,10.58333 -0.139774,0.20967 -0.57777,-0.17818 -0.755951,0 -0.347552,0.34755 -1.21466,2.42932 -1.511904,3.02381 -0.806349,1.6127 0.806347,4.43492 0,6.04762 -0.112691,0.22538 -0.577773,-0.17818 -0.755954,0 -0.356359,0.35636 0.225383,1.06114 0,1.51191 -0.159369,0.31873 -0.596582,0.43721 -0.755951,0.75595 -1.102347,2.20469 3.194499,10.24195 1.511905,13.60714 -1.029551,2.05911 -1.494274,6.02999 -3.023811,7.55952 -1.280242,1.28025 -1.743565,0.98762 -3.023809,2.26786 -0.178179,0.17818 0.225382,0.64326 0,0.75596 -0.676143,0.33807 -1.733318,-0.53454 -2.267857,0 -0.738846,0.73884 -0.230137,6.50789 -0.755952,7.55952 -1.152661,2.30532 -0.599292,-1.3826 -1.511905,2.26786 -0.256927,1.0277 0.733189,5.31443 0,6.04762 -0.178179,0.17817 -0.643261,-0.22537 -0.755952,0 -0.09254,0.18507 -0.249961,4.28575 0,4.5357 0.503968,0.50398 1.763889,0.25199 2.267857,0.75597 0.391278,0.39126 0.364675,2.63252 0.755952,3.02381 1.564091,1.56409 -0.06114,-2.39014 1.511905,0.75594 0.187328,0.37465 1.382017,4.01617 1.511906,4.53573 0.188986,0.75594 -0.377979,1.51188 0,2.26785 0.318735,0.63746 1.193165,0.87442 1.511903,1.51191 0.05342,0.10681 -0.03808,4.5357 0,4.5357 0.563454,0 -0.948452,-0.75595 -1.511903,-0.75595"
       id="path833" />
  </g>
</svg>
