<?xml version="1.0" encoding="UTF-8" standalone="no"?>
<svg
   xmlns:dc="http://purl.org/dc/elements/1.1/"
   xmlns:cc="http://creativecommons.org/ns#"
   xmlns:rdf="http://www.w3.org/1999/02/22-rdf-syntax-ns#"
   xmlns:svg="http://www.w3.org/2000/svg"
   xmlns="http://www.w3.org/2000/svg"
   xmlns:sodipodi="http://sodipodi.sourceforge.net/DTD/sodipodi-0.dtd"
   xmlns:inkscape="http://www.inkscape.org/namespaces/inkscape"
   version="1.1"
   id="svg2"
   width="181.72"
   height="37.400002"
   viewBox="0 0 181.72 37.4"
   sodipodi:docname="ldata-logo.svg"
   inkscape:version="1.0.2-2 (e86c870879, 2021-01-15)">
  <metadata
     id="metadata8">
    <rdf:RDF>
      <cc:Work
         rdf:about="">
        <dc:format>image/svg+xml</dc:format>
        <dc:type
           rdf:resource="http://purl.org/dc/dcmitype/StillImage" />
        <dc:title></dc:title>
      </cc:Work>
    </rdf:RDF>
  </metadata>
  <defs
     id="defs6">
    <linearGradient
       id="paint0_linear"
       x1="8.5"
       y1="4"
       x2="51.5"
       y2="55"
       gradientUnits="userSpaceOnUse"
       gradientTransform="translate(21.233508,17.068182)">
      <stop
         stop-color="#6964EE"
         id="stop10" />
      <stop
         offset="0.673777"
         stop-color="#9B92FF"
         id="stop12" />
    </linearGradient>
  </defs>
  <sodipodi:namedview
     pagecolor="#ffffff"
     bordercolor="#666666"
     borderopacity="1"
     objecttolerance="10"
     gridtolerance="10"
     guidetolerance="10"
     inkscape:pageopacity="0"
     inkscape:pageshadow="2"
     inkscape:window-width="1920"
     inkscape:window-height="1017"
     id="namedview4"
     showgrid="false"
     inkscape:zoom="2.4007726"
     inkscape:cx="23.360001"
     inkscape:cy="31.200001"
     inkscape:window-x="-8"
     inkscape:window-y="-8"
     inkscape:window-maximized="1"
     inkscape:current-layer="g10"
     inkscape:document-rotation="0"
     showguides="false" />
  <g
     inkscape:groupmode="layer"
     inkscape:label="Image"
     id="g10"
     style="display:inline">
    <path
       style="fill:#0053ce;fill-opacity:1;stroke-width:0.213182"
       d="m 26.47977,24.016595 c -5.543131,-2.368804 -3.954714,-9.936911 2.083154,-9.925314 1.647786,0.0032 2.811058,0.486294 3.887225,1.614441 1.104875,1.158241 1.537705,2.180026 1.553831,3.668127 0.02303,2.124972 -1.406549,4.064332 -3.521916,4.777831 -1.209793,0.408056 -2.861794,0.352296 -4.002294,-0.135085 z M 20.339947,11.995892 C 14.796816,9.627088 16.385233,2.05898 22.423102,2.070577 c 1.647786,0.0032 2.811058,0.486295 3.887224,1.614442 1.104874,1.158241 1.537706,2.180026 1.553832,3.668127 0.02302,2.124972 -1.406551,4.064332 -3.521916,4.777831 -1.209793,0.408054 -2.861795,0.352297 -4.002295,-0.135085 z"
       id="path853"
       sodipodi:nodetypes="scssssscscss" />
    <text
       xml:space="preserve"
       style="font-style:normal;font-weight:normal;font-size:41.0586px;line-height:1.25;font-family:sans-serif;fill:#000000;fill-opacity:1;stroke:none;stroke-width:0.60771"
       x="41.63068"
       y="36.478725"
       id="text844"
       transform="scale(1.0184867,0.98184885)"><tspan
         sodipodi:role="line"
         id="tspan842"
         x="41.63068"
         y="36.478725"
         style="font-style:normal;font-variant:normal;font-weight:bold;font-stretch:normal;font-size:41.0586px;font-family:Arial;-inkscape-font-specification:'Arial Bold';stroke-width:0.60771">LDATA</tspan></text>
  </g>
  <g
     inkscape:groupmode="layer"
     id="layer1"
     inkscape:label="Image 1"
     style="display:inline">
    <path
       style="display:inline;fill:#000000;fill-opacity:1;stroke-width:0.213182"
       d="M 6.562492,35.701061 C 5.113087,34.985408 4.075774,33.742006 3.757328,32.338574 3.441023,30.944583 3.644675,29.879215 4.478704,28.564819 5.442651,27.045676 6.83708,26.262649 8.754886,26.16358 c 1.263047,-0.06525 1.60754,0.0025 2.653514,0.521747 3.961726,1.966736 3.972024,7.12928 0.018,9.024592 -1.643234,0.787665 -3.256673,0.784726 -4.863911,-0.0088 z m 12.718202,0 c -1.449403,-0.715653 -2.486717,-1.959055 -2.805163,-3.362487 -0.316305,-1.393991 -0.112653,-2.459359 0.721375,-3.773755 0.963948,-1.519143 2.358378,-2.30217 4.276183,-2.401239 1.263049,-0.06525 1.607541,0.0025 2.653516,0.521747 3.961728,1.966736 3.972025,7.12928 0.018,9.024592 -1.643234,0.787665 -3.256675,0.784726 -4.863913,-0.0088 z M 6.562492,23.680358 C 5.113087,22.964705 4.075774,21.721302 3.757328,20.317871 3.441023,18.92388 3.644675,17.858512 4.478704,16.544115 5.442651,15.024972 6.83708,14.241947 8.754886,14.142876 c 1.263047,-0.06525 1.60754,0.0025 2.653514,0.521747 3.961726,1.966736 3.972024,7.12928 0.018,9.024593 -1.643234,0.787665 -3.256673,0.784726 -4.863911,-0.0088 z m 0,-12.020703 C 5.113087,10.944003 4.075774,9.700598 3.757328,8.297167 3.441023,6.903177 3.644675,5.837809 4.478704,4.523412 5.442651,3.004268 6.83708,2.221243 8.754886,2.122173 c 1.263047,-0.06525 1.60754,0.0025 2.653514,0.521746 3.961726,1.966736 3.972024,7.129282 0.018,9.024594 -1.643234,0.787664 -3.256673,0.784726 -4.863911,-0.0089 z"
       id="path843" />
  </g>
</svg>
