<?xml version="1.0" encoding="UTF-8" standalone="no"?>
<svg
   xmlns:dc="http://purl.org/dc/elements/1.1/"
   xmlns:cc="http://creativecommons.org/ns#"
   xmlns:rdf="http://www.w3.org/1999/02/22-rdf-syntax-ns#"
   xmlns:svg="http://www.w3.org/2000/svg"
   xmlns="http://www.w3.org/2000/svg"
   xmlns:sodipodi="http://sodipodi.sourceforge.net/DTD/sodipodi-0.dtd"
   xmlns:inkscape="http://www.inkscape.org/namespaces/inkscape"
   width="200.90552"
   height="200.90552"
   viewBox="0 0 200.90552 200.90551"
   version="1.1"
   id="svg8"
   sodipodi:docname="open-source.svg"
   inkscape:version="1.0.2-2 (e86c870879, 2021-01-15)">
  <metadata
     id="metadata14">
    <rdf:RDF>
      <cc:Work
         rdf:about="">
        <dc:format>image/svg+xml</dc:format>
        <dc:type
           rdf:resource="http://purl.org/dc/dcmitype/StillImage" />
        <dc:title></dc:title>
      </cc:Work>
    </rdf:RDF>
  </metadata>
  <defs
     id="defs12" />
  <sodipodi:namedview
     pagecolor="#ffffff"
     bordercolor="#666666"
     borderopacity="1"
     objecttolerance="10"
     gridtolerance="10"
     guidetolerance="10"
     inkscape:pageopacity="0"
     inkscape:pageshadow="2"
     inkscape:window-width="1920"
     inkscape:window-height="1017"
     id="namedview10"
     showgrid="false"
     inkscape:zoom="1"
     inkscape:cx="12.567636"
     inkscape:cy="165.41176"
     inkscape:window-x="-8"
     inkscape:window-y="-8"
     inkscape:window-maximized="1"
     inkscape:current-layer="svg8"
     units="px"
     width="200mm" />
  <g
     id="g6"
     transform="matrix(11.583334,0,0,11.583334,-20,-15.774118)">
    <path
       fill="none"
       d="M 0,0 H 24 V 24 H 0 Z"
       id="path2" />
    <path
       d="m 10.413973,2 c 4.570857,0 8.276041,3.7051838 8.276041,8.276042 0,3.418005 -2.072321,6.352689 -5.02935,7.614786 L 11.576756,12.47002 c 0.785397,-0.416285 1.320029,-1.242234 1.320029,-2.193978 0,-1.3713405 -1.111472,-2.4828128 -2.482812,-2.4828128 -1.3713405,0 -2.4828128,1.1114723 -2.4828128,2.4828128 0,0.951744 0.5354598,1.777693 1.3208562,2.194806 L 7.1681091,17.891655 C 4.2102518,16.627904 2.137931,13.694047 2.137931,10.276042 2.137931,5.7051838 5.8431148,2 10.413973,2 Z"
       id="path4"
       style="fill:#8c8cf9;fill-opacity:1;stroke-width:0.827604" />
  </g>
</svg>
